<svg viewBox="0 0 1024 1024" version="1.1"
  xmlns="http://www.w3.org/2000/svg" width="200" height="200">
  <path
    d="M42.666667 0a42.666667 42.666667 0 0 1 42.666666 42.666667v896h896a42.666667 42.666667 0 1 1 0 85.333333H42.666667a42.666667 42.666667 0 0 1-42.666667-42.666667V42.666667a42.666667 42.666667 0 0 1 42.666667-42.666667z"
    p-id="4054"></path>
  <path
    d="M963.456 263.936a42.666667 42.666667 0 0 1 9.941333 59.52l-213.333333 298.666667a42.666667 42.666667 0 0 1-62.037333 7.978666L474.325333 443.733333 245.76 710.4a42.666667 42.666667 0 0 1-64.768-55.466667l256-298.666666a42.666667 42.666667 0 0 1 59.733333-5.034667l220.629334 183.893333 186.624-261.248a42.666667 42.666667 0 0 1 59.52-9.941333z"
  ></path>
</svg>