<svg viewBox="0 0 1024 1024" version="1.1"
  xmlns="http://www.w3.org/2000/svg" width="200" height="200">
  <path
    d="M900.8 832H144V172.8c0-12.8-11.2-24-24-24S96 158.4 96 172.8v652.8C96 848 128 880 153.6 880h747.2c12.8 0 24-11.2 24-24s-11.2-24-24-24z"
    fill="#000000"></path>
  <path
    d="M228.8 784h624c17.6 0 28.8-17.6 28.8-36.8v-368c0-12.8-6.4-25.6-19.2-30.4-12.8-4.8-25.6-1.6-33.6 8L641.6 563.2 428.8 448c-11.2-6.4-24-4.8-33.6 1.6l-187.2 128c-8 6.4-16 16-16 25.6v144c0 19.2 17.6 36.8 36.8 36.8z"
    fill="#000000"></path>
</svg>